<svg xmlns="http://www.w3.org/2000/svg" viewBox="0 0 167.35 165.35"><defs><style>.cls-1{fill:#fff;}</style></defs><title>Asset 2</title><g id="Layer_2" data-name="Layer 2"><g id="Layer_1-2" data-name="Layer 1"><path class="cls-1" d="M130.67,130.56l34.47,34.24a19.71,19.71,0,0,1-2.73.49c-18.06,0-36.12.1-54.18-.07-1.62,0-3.55-1.25-4.78-2.48q-38-37.88-75.9-75.89C19.17,78.46,10.81,70.07,2.36,61.76A7.16,7.16,0,0,1,0,56.14c.1-17.5.06-35,.06-52.5V.36C1.46.28,2.55.15,3.64.15,35,.15,66.4-.22,97.78.21c27.63.38,48.71,13,61.36,37.55s10.45,48.86-5,71.79a64.71,64.71,0,0,1-20.38,19.06c-.94.57-1.87,1.17-3.12,2M43.16,42.81c.87,1,1.28,1.48,1.74,1.93C60.52,60.39,76.23,76,91.72,91.74c2.58,2.63,4.75,2.91,8,1.66C110.59,89.17,118.1,77.15,116.58,66c-1.7-12.14-11.38-22.7-22.65-23-16.67-.55-33.38-.14-50.77-.14"/><path class="cls-1" d="M61.29,164.94a11.82,11.82,0,0,1-2,.35q-28.08,0-56.16.06c-2,0-3.09-.28-3.08-2.72.09-18.95.05-37.9.07-56.85a16.92,16.92,0,0,1,.24-1.89Z"/></g></g></svg>